<?xml version="1.0" standalone="no"?>
<!DOCTYPE svg PUBLIC "-//W3C//DTD SVG 20010904//EN"
 "http://www.w3.org/TR/2001/REC-SVG-20010904/DTD/svg10.dtd">
<svg version="1.0" xmlns="http://www.w3.org/2000/svg"
 width="2000.000000pt" height="2000.000000pt" viewBox="0 0 2000.000000 2000.000000"
 preserveAspectRatio="xMidYMid meet">
<metadata>
Created by potrace 1.14, written by Peter Selinger 2001-2017
</metadata>
<g transform="translate(0.000000,2000.000000) scale(0.100000,-0.100000)"
fill="#000000" stroke="none">
<path d="M16 19975 c-15 -22 -16 -834 -16 -10000 l0 -9975 493 0 c270 0 578 5
682 10 1889 101 3731 588 5420 1432 1148 574 2164 1271 3133 2148 196 178 740
723 918 920 644 715 1177 1439 1670 2271 83 140 232 410 574 1039 37 69 232
427 432 795 201 369 564 1037 808 1485 244 448 703 1292 1020 1875 317 583
790 1452 1050 1930 260 479 666 1226 903 1660 236 435 611 1123 832 1530 221
407 584 1073 805 1480 644 1183 770 1416 770 1420 0 3 -4382 5 -9739 5 l-9739
0 -16 -25z m2294 -8301 c272 -51 523 -217 665 -439 26 -40 273 -489 492 -895
20 -36 49 -89 64 -117 16 -29 42 -77 58 -105 15 -29 45 -84 66 -123 21 -38 63
-115 93 -170 30 -55 75 -138 100 -185 25 -46 65 -118 87 -160 l42 -75 -456 -3
c-385 -2 -470 0 -545 13 -219 40 -414 148 -566 312 -88 96 -103 120 -405 678
-18 33 -146 269 -285 525 -139 256 -288 530 -332 609 -43 80 -78 146 -78 148
0 2 207 3 459 3 374 0 474 -3 541 -16z m4360 10 c0 -3 -12 -26 -26 -52 -15
-26 -58 -105 -97 -177 -38 -71 -206 -380 -372 -685 -166 -305 -432 -793 -590
-1085 -373 -687 -378 -697 -431 -793 -13 -23 -47 -86 -75 -140 -29 -53 -55
-101 -59 -107 -4 -5 -25 -44 -47 -85 -23 -41 -122 -223 -220 -405 -99 -181
-197 -361 -218 -400 -20 -38 -63 -117 -95 -175 -31 -58 -74 -136 -95 -175 -83
-154 -100 -183 -150 -250 -109 -148 -275 -273 -450 -339 -169 -65 -184 -66
-704 -66 -259 0 -471 3 -471 6 0 3 154 287 341 632 188 345 360 661 382 702
22 41 49 91 60 110 11 19 51 94 90 165 38 72 179 330 312 575 134 245 257 472
275 505 18 33 58 107 90 165 31 58 74 137 95 175 21 39 50 93 65 120 15 28 43
79 63 115 19 36 160 295 312 575 153 281 293 539 313 575 19 36 56 103 82 150
26 47 68 126 95 175 26 50 61 114 77 143 l29 52 710 0 c390 0 709 -3 709 -6z
m3964 -14 c246 -50 449 -177 608 -380 33 -42 78 -117 160 -270 109 -201 460
-846 533 -980 29 -52 69 -126 90 -165 21 -38 51 -94 66 -122 65 -119 89 -162
138 -255 l53 -98 -459 0 c-355 0 -476 3 -538 14 -274 50 -513 206 -672 441
-17 25 -515 936 -760 1390 -39 72 -82 150 -95 175 -14 25 -44 81 -68 125 -23
44 -52 95 -62 113 l-20 32 465 0 c425 0 473 -2 561 -20z m4318 -32 c-16 -29
-49 -89 -72 -133 -24 -44 -46 -84 -50 -90 -4 -5 -30 -54 -59 -107 -28 -54 -62
-117 -75 -140 -34 -63 -79 -144 -119 -218 -19 -36 -156 -288 -304 -560 -148
-272 -291 -535 -318 -585 -26 -49 -51 -94 -55 -100 -4 -5 -30 -54 -59 -107
-28 -54 -62 -117 -75 -140 -13 -24 -37 -69 -55 -100 -17 -32 -45 -84 -62 -115
-18 -32 -44 -80 -59 -108 -15 -27 -41 -75 -57 -105 -17 -30 -46 -84 -66 -120
-38 -70 -566 -1043 -625 -1150 -19 -36 -56 -103 -82 -150 -26 -47 -71 -130
-100 -185 -120 -226 -170 -300 -269 -393 -145 -138 -309 -224 -511 -267 -64
-13 -145 -15 -542 -13 l-466 3 220 405 c121 223 389 716 596 1095 206 380 390
717 407 750 18 33 156 287 307 565 152 278 307 564 345 635 39 72 84 155 101
185 90 165 644 1184 672 1238 l34 62 714 0 713 0 -29 -52z m-6759 -40 c24 -46
59 -110 77 -143 18 -33 116 -213 217 -400 102 -187 201 -369 220 -405 20 -36
49 -90 66 -120 16 -30 43 -79 58 -107 16 -29 42 -77 58 -105 36 -67 80 -147
120 -220 17 -32 45 -83 61 -113 17 -30 43 -79 59 -107 15 -29 45 -84 66 -123
21 -38 64 -117 95 -175 32 -58 75 -136 95 -175 21 -38 119 -218 218 -400 98
-181 195 -359 214 -395 20 -36 49 -89 64 -117 16 -29 43 -78 59 -108 17 -30
44 -81 61 -112 55 -100 91 -166 119 -218 37 -68 589 -1085 655 -1207 l53 -98
-712 0 -712 0 -164 302 c-91 166 -184 337 -207 380 -23 43 -55 102 -71 130
-16 29 -51 94 -77 143 -27 50 -69 128 -95 175 -26 47 -64 117 -85 155 -21 39
-61 113 -90 165 -29 52 -68 124 -87 160 -20 36 -120 220 -223 410 -103 190
-206 379 -228 420 -22 41 -49 91 -60 110 -11 19 -50 91 -87 160 -37 69 -83
152 -101 185 -223 405 -251 485 -251 725 -1 251 20 307 325 868 132 243 242
442 243 442 1 0 22 -37 47 -82z m-63 -2563 c0 -2 -8 -19 -18 -37 -10 -18 -40
-73 -67 -123 -27 -49 -69 -128 -95 -175 -26 -47 -63 -114 -82 -150 -46 -84
-399 -735 -446 -820 -19 -36 -56 -103 -82 -150 -26 -47 -67 -123 -92 -170
-122 -226 -165 -288 -272 -387 -122 -115 -249 -187 -421 -240 l-90 -28 -499
-3 c-476 -3 -498 -2 -492 15 6 14 178 333 302 560 13 23 98 181 190 350 521
960 521 960 650 1084 112 107 221 173 365 223 148 50 198 54 692 55 251 1 457
-1 457 -4z"/>
<path d="M15955 9050 c-552 -7 -540 -5 -731 -79 -156 -60 -352 -217 -450 -361
-17 -25 -239 -427 -494 -895 -254 -467 -478 -878 -497 -913 l-35 -63 508 3
c487 4 512 5 587 25 173 49 324 133 449 251 86 82 150 169 226 307 353 647
944 1736 940 1733 -2 -1 -228 -5 -503 -8z"/>
</g>
</svg>
